# xmcd CD database file
#
# Track frame offsets:
#	150
#	13515
#	23496
#	37788
#	47013
#	58812
#	71430
#	81285
#	90798
#	103803
#	112965
#	126132
#	135861
#	147948
#
# Disc length: 2147 seconds
#
# Revision: 0
# Processed by: cddbd v1.5.2PL0 Copyright (c) Steve Scherf et al.
# Submitted via: CDex 1.70beta2
#
DISCID=a508610e
DTITLE=Vokes, Howard - USA - Heartbreak and Sprrow
DYEAR=1900
DGENRE=Country
TTITLE0=Willie Roy The Crippled Boy
TTITLE1=Plastic Heart
TTITLE2=Tomorrow Is My Last Day
TTITLE3=Keep Cool But Don't Freeze
TTITLE4=Empty Victory
TTITLE5=Break the News
TTITLE6=West of the Yukon
TTITLE7=It Takes Six Me To Carry A Man To His Grave
TTITLE8=Judge of Hearts
TTITLE9=My Weepinjg Heart
TTITLE10=Born Without a Nam
TTITLE11=I Was a Fool
TTITLE12=Forever
TTITLE13=Your Kisses and Lies
EXTD=
EXTT0=
EXTT1=
EXTT2=
EXTT3=
EXTT4=
EXTT5=
EXTT6=
EXTT7=
EXTT8=
EXTT9=
EXTT10=
EXTT11=
EXTT12=
EXTT13=
PLAYORDER=
